HIERARCHY
ROOT Hips
{
 OFFSET 0.000000 0.000000 0.000000
 CHANNELS 6 Xposition Yposition Zposition Yrotation Xrotation Zrotation
 JOINT Chest
 {
  OFFSET 0.000000 9.585900 0.002600
  CHANNELS 3 Yrotation Xrotation Zrotation
  JOINT Chest2
  {
   OFFSET 0.000000 9.601200 -0.005300
   CHANNELS 3 Yrotation Xrotation Zrotation
   JOINT Chest3
   {
    OFFSET 0.000000 9.561800 0.000000
    CHANNELS 3 Yrotation Xrotation Zrotation
    JOINT Chest4
    {
     OFFSET 0.000000 9.552100 0.000000
     CHANNELS 3 Yrotation Xrotation Zrotation
     JOINT Neck
     {
      OFFSET 0.000000 14.453000 0.000000
      CHANNELS 3 Yrotation Xrotation Zrotation
      JOINT Head
      {
       OFFSET 0.000000 8.936500 -0.011300
       CHANNELS 3 Yrotation Xrotation Zrotation
       End Site
       {
        OFFSET 0.000000 17.073600 -0.006000
       }
      }
     }
     JOINT RightCollar
     {
      OFFSET -2.921100 9.558500 0.000000
      CHANNELS 3 Yrotation Xrotation Zrotation
      JOINT RightShoulder
      {
       OFFSET -13.519700 0.000000 0.000000
       CHANNELS 3 Yrotation Xrotation Zrotation
       JOINT RightElbow
       {
        OFFSET 0.000000 -29.696600 0.000000
        CHANNELS 3 Yrotation Xrotation Zrotation
        JOINT RightWrist
        {
         OFFSET 0.000000 -24.004700 0.000000
         CHANNELS 3 Yrotation Xrotation Zrotation
         End Site
         {
          OFFSET 0.000000 -17.728500 0.000000
         }
        }
       }
      }
     }
     JOINT LeftCollar
     {
      OFFSET 2.921100 9.558500 0.000000
      CHANNELS 3 Yrotation Xrotation Zrotation
      JOINT LeftShoulder
      {
       OFFSET 13.519700 0.000000 0.000000
       CHANNELS 3 Yrotation Xrotation Zrotation
       JOINT LeftElbow
       {
        OFFSET 0.000000 -29.696600 0.000000
        CHANNELS 3 Yrotation Xrotation Zrotation
        JOINT LeftWrist
        {
         OFFSET 0.000000 -24.004700 0.000000
         CHANNELS 3 Yrotation Xrotation Zrotation
         End Site
         {
          OFFSET 0.000000 -17.728500 0.000000
         }
        }
       }
      }
     }
    }
   }
  }
 }
 JOINT RightHip
 {
  OFFSET -7.771700 -0.012900 -0.001300
  CHANNELS 3 Yrotation Xrotation Zrotation
  JOINT RightKnee
  {
   OFFSET 0.000000 -40.869800 0.001200
   CHANNELS 3 Yrotation Xrotation Zrotation
   JOINT RightAnkle
   {
    OFFSET 0.000000 -39.717900 0.002100
    CHANNELS 3 Yrotation Xrotation Zrotation
    JOINT RightToe
    {
     OFFSET 0.000000 -4.965400 11.033500
     CHANNELS 3 Yrotation Xrotation Zrotation
     End Site
     {
      OFFSET 0.000000 -1.423100 5.872300
     }
    }
   }
  }
 }
 JOINT LeftHip
 {
  OFFSET 7.771700 -0.012900 -0.001300
  CHANNELS 3 Yrotation Xrotation Zrotation
  JOINT LeftKnee
  {
   OFFSET 0.000000 -40.869800 0.001200
   CHANNELS 3 Yrotation Xrotation Zrotation
   JOINT LeftAnkle
   {
    OFFSET 0.000000 -39.717900 0.002100
    CHANNELS 3 Yrotation Xrotation Zrotation
    JOINT LeftToe
    {
     OFFSET 0.000000 -4.965400 11.033500
     CHANNELS 3 Yrotation Xrotation Zrotation
     End Site
     {
      OFFSET 0.000000 -1.423100 5.872300
     }
    }
   }
  }
 }
}
MOTION
Frames: 12
Frame Time: 0.008333
0.000000 85.388000 0.000000 0.000000 -5.767877 0.000000 0.000000 11.653817 0.000000 0.000000 -5.885947 0.000000 0.000000 -0.000000 0.000000 0.000000 -0.000000 0.000000 0.000000 12.528835 0.000000 0.000000 0.711642 0.000000 0.000000 -0.000000 0.000000 0.000000 0.000000 -90.000000 0.000000 -2.309062 0.000000 0.000000 2.309062 0.000000 0.000000 -0.000000 0.000000 0.000000 -0.000000 90.000000 0.000000 -2.309062 0.000000 0.000000 2.309062 0.000000 0.000000 8.520406 0.000000 0.000000 1.905762 0.000000 -0.000000 -4.658285 0.000000 0.000000 -0.000000 0.000000 0.000000 8.520406 0.000000 0.000000 1.905762 0.000000 -0.000000 -4.658285 0.000000 0.000000 -0.000000 0.000000
-9.771524 57.911688 29.848484 171.072202 -39.970343 -1.054245 2.838251 25.693645 2.543822 0.385727 4.266867 0.238830 0.626485 6.794166 0.403416 2.194575 21.281780 1.553211 1.127471 9.448227 -2.745593 3.468572 -18.112445 -5.885474 3.771679 -1.000551 -1.358091 38.908013 -42.464632 -23.627908 50.724583 -17.872371 -14.269688 16.281923 15.632983 -28.455305 -9.248547 -6.666202 -1.143686 -30.853802 -40.972200 13.225532 -58.826074 -14.571099 15.362352 -29.784476 2.765443 29.044557 10.731353 -32.814946 1.840445 -1.378432 68.895614 1.186873 4.336573 4.016721 2.706431 -0.021931 0.106198 -0.032029 -6.433581 -33.945623 -0.039822 23.058122 73.143682 22.680394 -23.400217 -2.142584 -3.272191 -0.148365 -0.534060 -0.071287
-9.769654 57.911795 29.851181 171.074982 -39.963978 -1.052195 2.834393 25.687911 2.546780 0.386167 4.265316 0.236130 0.625431 6.794296 0.401538 2.200008 21.275393 1.567502 1.117473 9.434546 -2.770789 3.469856 -18.148050 -5.943216 3.758059 -1.005013 -1.345310 38.939102 -42.458581 -23.650684 50.718973 -17.856652 -14.242195 16.281322 15.634614 -28.463910 -9.260059 -6.664261 -1.143620 -30.864080 -40.964385 13.228834 -58.802126 -14.561355 15.355735 -29.772321 2.759838 29.063619 10.732606 -32.820283 1.838476 -1.372227 68.892952 1.191180 4.320913 4.015685 2.709863 -0.023157 0.107390 -0.030536 -6.439640 -33.951452 -0.038390 23.059553 73.138172 22.678563 -23.396818 -2.139788 -3.277321 -0.147696 -0.532828 -0.069594
-9.766603 57.912582 29.853649 171.074358 -39.962567 -1.053531 2.835199 25.686287 2.552155 0.384214 4.262004 0.248449 0.626387 6.797573 0.393320 2.197370 21.265984 1.582360 1.110053 9.417672 -2.803661 3.475338 -18.180825 -5.991458 3.758879 -0.997158 -1.353664 38.949886 -42.455750 -23.664749 50.717929 -17.852204 -14.226078 16.278949 15.629911 -28.465386 -9.269141 -6.661993 -1.145956 -30.843689 -40.968892 13.208605 -58.795564 -14.555036 15.350725 -29.765497 2.756548 29.071489 10.734466 -32.821279 1.843298 -1.371310 68.888281 1.190119 4.319743 4.018756 2.712934 -0.027564 0.105209 -0.026857 -6.467241 -33.951560 -0.016140 23.064087 73.136986 22.661656 -23.395259 -2.139214 -3.279658 -0.151512 -0.531993 -0.069188
-9.763821 57.913982 29.855445 171.070873 -39.966915 -1.051076 2.836509 25.688646 2.555769 0.382677 4.259743 0.250563 0.625443 6.795277 0.397649 2.195216 21.270854 1.574526 1.107477 9.396618 -2.814031 3.479143 -18.189711 -6.013862 3.760770 -0.996924 -1.345604 38.959626 -42.454910 -23.678983 50.716490 -17.848307 -14.215539 16.284422 15.612929 -28.460514 -9.273344 -6.662356 -1.134626 -30.829496 -40.973907 13.194199 -58.786598 -14.533627 15.334413 -29.759957 2.739526 29.102762 10.739753 -32.816390 1.847264 -1.380406 68.884198 1.178897 4.322438 4.021768 2.717270 -0.028653 0.102440 -0.024056 -6.490332 -33.943811 0.004049 23.061136 73.134432 22.635945 -23.396467 -2.142037 -3.279068 -0.156288 -0.528181 -0.070356
-9.761588 57.914967 29.857588 171.071139 -39.967924 -1.049527 2.823388 25.678524 2.563647 0.391123 4.270018 0.237637 0.622031 6.787614 0.405662 2.191395 21.266942 1.579980 1.106933 9.402513 -2.833773 3.482528 -18.214023 -6.041370 3.763537 -0.985399 -1.351361 38.976988 -42.473834 -23.691867 50.716665 -17.831258 -14.184413 16.280642 15.605884 -28.467977 -9.269696 -6.654968 -1.140478 -30.834613 -40.973381 13.188200 -58.762064 -14.507841 15.316541 -29.756169 2.726996 29.124007 10.746034 -32.814459 1.851348 -1.400571 68.880517 1.154388 4.320911 4.023154 2.724223 -0.019687 0.101617 -0.021239 -6.516487 -33.938371 0.019303 23.053892 73.129196 22.609285 -23.391277 -2.147213 -3.281500 -0.161817 -0.520830 -0.072191
-9.760786 57.916267 29.858728 171.063580 -39.974249 -1.035675 2.816540 25.676844 2.559698 0.389691 4.270428 0.236074 0.612198 6.772813 0.418851 2.188818 21.277992 1.568588 1.106649 9.382638 -2.859781 3.495425 -18.249373 -6.093021 3.772433 -0.973054 -1.361259 38.982765 -42.485700 -23.698668 50.715926 -17.834233 -14.161597 16.281319 15.607287 -28.472495 -9.261717 -6.648575 -1.144858 -30.854763 -40.970160 13.189527 -58.724015 -14.485218 15.302019 -29.756201 2.720486 29.141156 10.759515 -32.807464 1.847936 -1.392081 68.879777 1.154596 4.310819 4.023222 2.732687 -0.020819 0.100597 -0.019823 -6.551558 -33.928259 0.034453 23.086013 73.124365 22.597924 -23.371108 -2.148755 -3.272379 -0.171650 -0.517401 -0.078210
-9.760303 57.916571 29.860532 171.063798 -39.973566 -1.027703 2.806165 25.670250 2.555591 0.386718 4.266089 0.239107 0.611748 6.771115 0.420485 2.177156 21.258847 1.589636 1.105266 9.379490 -2.909075 3.506563 -18.348999 -6.199999 3.784431 -0.940086 -1.391992 38.986176 -42.500072 -23.704839 50.717240 -17.831237 -14.133083 16.276120 15.605545 -28.484551 -9.249415 -6.625409 -1.179217 -30.871412 -40.964035 13.193297 -58.689965 -14.466656 15.290155 -29.760207 2.718890 29.157012 10.765627 -32.807431 1.842145 -1.395954 68.879542 1.146740 4.301943 4.022621 2.740409 -0.020315 0.099670 -0.019276 -6.569147 -33.928929 0.037134 23.068459 73.121895 22.564779 -23.357870 -2.140293 -3.276009 -0.175950 -0.522855 -0.077291
-9.758942 57.916765 29.862091 171.061460 -39.973942 -1.024721 2.805223 25.668687 2.555654 0.380795 4.257838 0.247907 0.614841 6.770256 0.419654 2.174651 21.254469 1.593732 1.097066 9.354361 -2.932889 3.514096 -18.412858 -6.280626 3.786494 -0.927697 -1.395976 38.986955 -42.506714 -23.710365 50.714574 -17.832485 -14.119640 16.279751 15.600164 -28.480076 -9.248457 -6.612874 -1.194460 -30.897075 -40.954730 13.213610 -58.652609 -14.455965 15.277662 -29.767708 2.713270 29.172588 10.766915 -32.806706 1.845816 -1.399208 68.877352 1.136129 4.300487 4.022322 2.753783 -0.020771 0.100658 -0.025585 -6.583063 -33.929069 0.045687 23.075029 73.121018 22.559664 -23.358800 -2.136122 -3.274842 -0.164525 -0.528004 -0.078842
-9.757768 57.916651 29.863448 171.059708 -39.973044 -1.021684 2.801616 25.662033 2.561294 0.379980 4.255775 0.248766 0.618488 6.770539 0.417311 2.172640 21.251251 1.593970 1.088418 9.325459 -2.953080 3.515403 -18.462211 -6.342187 3.785662 -0.917149 -1.386599 38.994034 -42.501549 -23.725017 50.706325 -17.836596 -14.106181 16.285566 15.595145 -28.475545 -9.252382 -6.600474 -1.190608 -30.897072 -40.959542 13.206004 -58.636529 -14.447048 15.274092 -29.772742 2.714943 29.176181 10.765567 -32.807103 1.848540 -1.399146 68.875317 1.124231 4.314840 4.020024 2.773027 -0.020296 0.101222 -0.030603 -6.600121 -33.931546 0.054123 23.091755 73.121365 22.561759 -23.354566 -2.131786 -3.271695 -0.173264 -0.532262 -0.083027
-9.756568 57.915957 29.865109 171.058744 -39.966796 -1.019495 2.803646 25.653971 2.566025 0.382382 4.253576 0.256249 0.615674 6.770401 0.412092 2.167618 21.251948 1.588459 1.083012 9.257628 -2.992936 3.508036 -18.438925 -6.337337 3.787433 -0.903163 -1.366434 39.005317 -42.524120 -23.747863 50.712553 -17.829517 -14.085026 16.292327 15.599103 -28.458706 -9.252262 -6.593096 -1.168830 -30.890509 -40.972318 13.183335 -58.620116 -14.436353 15.271690 -29.775096 2.720431 29.184499 10.765350 -32.812986 1.849810 -1.403852 68.873976 1.114613 4.310921 4.015905 2.781884 -0.020468 0.104288 -0.031857 -6.620302 -33.939534 0.065601 23.107958 73.122673 22.560804 -23.347594 -2.129345 -3.270152 -0.172103 -0.534284 -0.084571
-9.755268 57.915236 29.866507 171.056460 -39.959317 -1.015850 2.806003 25.649331 2.570452 0.381591 4.251234 0.253401 0.618432 6.767466 0.417593 2.167548 21.247967 1.591171 1.073352 9.224308 -3.024449 3.500482 -18.524845 -6.418544 3.784885 -0.882831 -1.362985 39.009351 -42.595015 -23.759032 50.740087 -17.791352 -14.042782 16.287539 15.605146 -28.447134 -9.257392 -6.581535 -1.163225 -30.878109 -40.983235 13.162910 -58.600249 -14.418847 15.268869 -29.780287 2.716789 29.195344 10.766143 -32.820649 1.849092 -1.407588 68.873785 1.106712 4.309878 4.012616 2.791611 -0.020618 0.105900 -0.034066 -6.628574 -33.947602 0.073189 23.117506 73.121632 22.561814 -23.358498 -2.130787 -3.265262 -0.174246 -0.535570 -0.086657
